<svg xmlns="http://www.w3.org/2000/svg" viewBox="0 0 408.82 357.31"><g id="Layer_2" data-name="Layer 2"><g id="Layer_1-2" data-name="Layer 1"><path d="M408.82,22c-2.38,10.87-4.88,21.72-7.15,32.61q-23,110.43-45.89,220.86-6.64,32-13.27,64c-2.47,12-10,18.93-20.67,17.7a25.94,25.94,0,0,1-11.49-4.86c-28.64-20.54-57.1-41.32-85.62-62-6.85-5-8.3-4.92-14.92.48-15.36,12.52-30.69,25.1-46.12,37.53-9.7,7.81-21.72,6.53-28.28-3.05a31.4,31.4,0,0,1-3.63-8.34q-16-50.94-31.71-102a6.59,6.59,0,0,0-4.55-4.79Q54.42,195,13.41,179.5c-10.54-4-15.54-13.42-12.56-23.42,1.94-6.49,6.53-10.37,12.73-12.75q35-13.4,69.88-27,147.77-57,295.46-114.13c14.05-5.47,26.36-.88,29.9,13.38ZM217.45,270.33c6,0,11,2.49,15.73,5.94q43.23,31.46,86.52,62.83c4.44,3.22,5.66,2.73,6.78-2.63q4.41-21.27,8.83-42.54Q361.16,169.64,387,45.36c1.73-8.32,3.51-16.64,5.1-25,.79-4.19-.55-5.21-4.54-3.84-.62.21-1.23.48-1.85.72L21,157.92a18.54,18.54,0,0,0-2.92,1.27c-2.21,1.37-2.22,3.32,0,4.62a18,18,0,0,0,3,1.17c28.24,10.56,56.45,21.2,84.74,31.6,4.61,1.69,7.07,4.46,8.48,9.07q16.47,53.5,33.22,106.92c1.73,5.54,2.65,5.8,7.25,2.05q23.35-19,46.71-38.07C206.13,272.72,211.31,270.33,217.45,270.33Z"/><path d="M324.32,80.43c.09,4.89-2.47,7.72-5.35,10.4q-32.16,29.88-64.29,59.77-35.51,33-71,66a24.66,24.66,0,0,0-8.1,15.92c-1.18,10.16-2.66,20.29-4.07,30.42-.56,4-1.59,7.83-5.07,10.46-7.51,5.67-17.08,2.17-20-7.5-2.54-8.38-4.84-16.84-7.23-25.27-3.37-11.88-6.76-23.75-10.09-35.64-3.69-13.15.27-23.7,11.83-30.83q82.44-50.86,164.94-101.62c4.22-2.6,8.56-3.82,13.11-1.07C322.5,73.58,324.43,76.78,324.32,80.43ZM156.69,242.65l1,0c.42-3,1-5.92,1.24-8.9,1-11.42,5.1-21.25,13.71-29.21q46.47-42.93,92.73-86.1c.89-.84,1.76-1.69,2.64-2.54a9.49,9.49,0,0,0-4.09,1.59l-67.58,41.62q-23.26,14.33-46.52,28.66c-5.12,3.17-6.75,6.21-5.4,11.16C148.39,213.55,152.58,228.09,156.69,242.65Z"/><path d="M339.37,222.86l-5.59,25.77Q327.4,278,321,307.39c-.81,3.77-2.54,6.75-6.6,7.6-3.29.68-6.58-.2-7.95-3.14a15.71,15.71,0,0,1-1.1-8.71c1.25-7.58,3.15-15.06,4.79-22.58q6.22-28.6,12.44-57.2a40.62,40.62,0,0,1,1.14-4.63c1.46-4.26,5.27-6.59,9.25-5.78S339.57,217.25,339.37,222.86Z"/><path d="M347.48,185.48a52.67,52.67,0,0,1-1.77,6.69,7.68,7.68,0,0,1-9,4.74,7.47,7.47,0,0,1-6.12-7.72A31.82,31.82,0,0,1,332,181a7.87,7.87,0,0,1,8.94-5.62C345.05,176.15,347.64,179.56,347.48,185.48Z"/></g></g></svg>